parasomnia.2008.lkrg.mp4

File Size

Format : MPEG-4
Format profile : Base Media
Codec ID : isom
File size : 2.50 GiB
Duration : 1h 39mn
Overall bit rate : 3 588 Kbps

Video
ID : 1
Format : AVC
Format/Info : Advanced Video Codec
Format profile : High@L4.1
Format settings, CABAC : Yes
Format settings, ReFrames : 3 frames
Codec ID : avc1
Codec ID/Info : Advanced Video Coding
Duration : 1h 39mn
Bit rate mode : Variable
Bit rate : 3 008 Kbps
Maximum bit rate : 25.8 Mbps
Width : 1 280 pixels
Height : 720 pixels
Display aspect ratio : 16:9
Frame rate mode : Constant
Frame rate : 25.000 fps
Resolution : 24 bits
Colorimetry : 4:2:0
Scan type : Progressive
Bits/(Pixel*Frame) : 0.131
Stream size : 2.10 GiB (84%)

Audio #1
ID : 2
Format : AAC
Format/Info : Advanced Audio Codec
Format version : Version 4
Format profile : LC
Format settings, SBR : No
Codec ID : 40
Duration : 1h 39mn
Bit rate mode : Variable
Bit rate : 128 Kbps
Maximum bit rate : 136 Kbps
Channel(s) : 2 channels
Channel positions : L R
Sampling rate : 48.0 KHz
Resolution : 16 bits
Stream size : 91.4 MiB (4%)

Audio #2
ID : 3
Format : AAC
Format/Info : Advanced Audio Codec
Format version : Version 4
Format profile : LC
Format settings, SBR : No
Codec ID : 40
Duration : 1h 39mn
Bit rate mode : Variable
Bit rate : 448 Kbps
Maximum bit rate : 469 Kbps
Channel(s) : 6 channels
Channel positions : Front: L C R, Rear: L R, LFE
Sampling rate : 48.0 KHz
Resolution : 16 bits
Stream size : 319 MiB (12%)

English SRT : N/A

Release Date:----

Language:English

Info Hash:


Tracker Info:
Code: 
http://nemesis.1337x.org/announce
 
http://tracker.openbittorrent.com/announce
 
http://genesis.1337x.org:1337/announce
 
http://exodus.1337x.org/announce




Plot: A horror-thriller centered on a woman (Wilson) suffering from a medical condition that causes her to sleep her life away, waking briefly on rare occasions.

Cast:
Dylan Purcell ... Danny Sloan
Patrick Kilpatrick ... Byron Volpe
Jeffrey Combs ... Detective Garret
Cherilyn Wilson ... Laura Baxter
Timothy Bottoms ... Dr. Corso
Kathryn Leigh Scott ... Nurse Evans
Brennan Bailey ... Danny - Age 8
Dov Tiefenbach ... Billy
Alison Brie ... Darcy
Katherine Carlsberg ... Miranda
Madison Davenport ... Young Laura
Serah D'Laine ... Pretty Young Nurse (as Sarah Laine)
Jeff Doucette ... Detective Conroy
Mekita Faiye ... Nurse / receptionist
Enzo Giobbe ... Man in hallway with camera
Louis Graham ... Dr. Bhyle
Veronica Hart ... TV Reporter (as Jane Hamilton)
Valorie Hubbard
Ronald Hunter ... Stranger
Marty Ingels ... Mr. boudreau
Janet Tracy Keijser ... Sara
Christine Krench ... Sales Clerk
John Landis ... Department Store Manager
Danielle Langlois ... Anne
Sandy Martin
Sean McHugh ... Officer #2
Ricardo Medina Jr. ... Officer
Philip Newby ... Phil
Leo Quinones ... Field Reporter
Charles Schneider ... Gun selling creep
Kent Shocknek ... News Anchor
Malcolm Foster Smith ... Security Guard
David Ury ... Record Store Owner
Sean Young ... Madeline Volpe

Genre: Horror | Romance | Thriller








 
http://www.imdb.com/title/tt0922547/

Another Quality Upload Brought To 